<svg xmlns="http://www.w3.org/2000/svg" viewBox="0 0 448 512"><path d="M207.1 415.1l-89.2-58.4c-5.5-3.6-7.1-11.1-3.5-16.6l17.5-26.8c3.6-5.5 11.1-7.1 16.6-3.5l52.4 34.3 85.7-130.9c3.6-5.5 11.1-7.1 16.6-3.5l26.8 17.5c5.5 3.6 7.1 11.1 3.5 16.6L223.7 411.7c-3.6 5.5-11.1 7.1-16.6 3.4zM448 112v352c0 26.5-21.5 48-48 48H48c-26.5 0-48-21.5-48-48V112c0-26.5 21.5-48 48-48h48V12c0-6.6 5.4-12 12-12h40c6.6 0 12 5.4 12 12v52h128V12c0-6.6 5.4-12 12-12h40c6.6 0 12 5.4 12 12v52h48c26.5 0 48 21.5 48 48zm-48 346V160H48v298c0 3.3 2.7 6 6 6h340c3.3 0 6-2.7 6-6z"/></svg>