<svg xmlns="http://www.w3.org/2000/svg" viewBox="0 0 512 512"><path d="M488 448H24c-13.3 0-24-10.7-24-24V88c0-13.3 10.7-24 24-24h464c13.3 0 24 10.7 24 24v336c0 13.3-10.7 24-24 24zm-28-344H209.3c-6.6 0-12 5.4-12 12v50.7c0 6.6 5.4 12 12 12H460c6.6 0 12-5.4 12-12V116c0-6.6-5.4-12-12-12zm0 114.7H209.3c-6.6 0-12 5.4-12 12v50.7c0 6.6 5.4 12 12 12H460c6.6 0 12-5.4 12-12v-50.7c0-6.7-5.4-12-12-12zM40 116v50.7c0 6.6 5.4 12 12 12h93.3c6.6 0 12-5.4 12-12V116c0-6.6-5.4-12-12-12H52c-6.6 0-12 5.4-12 12zm0 114.7v50.7c0 6.6 5.4 12 12 12h93.3c6.6 0 12-5.4 12-12v-50.7c0-6.6-5.4-12-12-12H52c-6.6 0-12 5.3-12 12zM52 408h93.3c6.6 0 12-5.4 12-12v-50.7c0-6.6-5.4-12-12-12H52c-6.6 0-12 5.4-12 12V396c0 6.6 5.4 12 12 12zm157.3 0H460c6.6 0 12-5.4 12-12v-50.7c0-6.6-5.4-12-12-12H209.3c-6.6 0-12 5.4-12 12V396c0 6.6 5.4 12 12 12z"/></svg>