<svg xmlns="http://www.w3.org/2000/svg" viewBox="0 0 512 512"><path d="M488 448H24c-13.3 0-24-10.7-24-24V88c0-13.3 10.7-24 24-24h464c13.3 0 24 10.7 24 24v336c0 13.3-10.7 24-24 24zM48 124v96c0 6.6 5.4 12 12 12h160c6.6 0 12-5.4 12-12v-96c0-6.6-5.4-12-12-12H60c-6.6 0-12 5.4-12 12zm12 276h160c6.6 0 12-5.4 12-12v-96c0-6.6-5.4-12-12-12H60c-6.6 0-12 5.4-12 12v96c0 6.6 5.4 12 12 12zm404-12v-96c0-6.6-5.4-12-12-12H292c-6.6 0-12 5.4-12 12v96c0 6.6 5.4 12 12 12h160c6.6 0 12-5.4 12-12zm0-168v-96c0-6.6-5.4-12-12-12H292c-6.6 0-12 5.4-12 12v96c0 6.6 5.4 12 12 12h160c6.6 0 12-5.4 12-12z"/></svg>