<svg xmlns="http://www.w3.org/2000/svg" viewBox="0 0 512 512"><path d="M149.3 226.7v58.7c0 13.3-10.7 24-24 24H24c-13.3 0-24-10.7-24-24v-58.7c0-13.3 10.7-24 24-24h101.3c13.3 0 24 10.7 24 24zM125.3 64H24C10.7 64 0 74.7 0 88v58.7c0 13.3 10.7 24 24 24h101.3c13.3 0 24-10.7 24-24V88c0-13.3-10.7-24-24-24zM0 365.3V424c0 13.3 10.7 24 24 24h101.3c13.3 0 24-10.7 24-24v-58.7c0-13.3-10.7-24-24-24H24c-13.3 0-24 10.8-24 24zM205.3 448H488c13.3 0 24-10.7 24-24v-58.7c0-13.3-10.7-24-24-24H205.3c-13.3 0-24 10.7-24 24V424c0 13.3 10.8 24 24 24zm0-138.7H488c13.3 0 24-10.7 24-24v-58.7c0-13.3-10.7-24-24-24H205.3c-13.3 0-24 10.7-24 24v58.7c0 13.3 10.8 24 24 24zM181.3 88v58.7c0 13.3 10.7 24 24 24H488c13.3 0 24-10.7 24-24V88c0-13.3-10.7-24-24-24H205.3c-13.2 0-24 10.7-24 24z"/></svg>