<svg xmlns="http://www.w3.org/2000/svg" viewBox="0 0 512 512"><path d="M216 240H24c-13.3 0-24-10.7-24-24V88c0-13.3 10.7-24 24-24h192c13.3 0 24 10.7 24 24v128c0 13.3-10.7 24-24 24zm24 184V296c0-13.3-10.7-24-24-24H24c-13.3 0-24 10.7-24 24v128c0 13.3 10.7 24 24 24h192c13.3 0 24-10.7 24-24zm272-208V88c0-13.3-10.7-24-24-24H296c-13.3 0-24 10.7-24 24v128c0 13.3 10.7 24 24 24h192c13.3 0 24-10.7 24-24zm0 208V296c0-13.3-10.7-24-24-24H296c-13.3 0-24 10.7-24 24v128c0 13.3 10.7 24 24 24h192c13.3 0 24-10.7 24-24z"/></svg>